# xmcd
#
# Track frame offsets: 
#        150
#        76348
#        112616
#        135734
#        173924
#        197808
#        206665
#        217684
#        235319
#        249651
#        253041
#        268316
#        273066
#        284805
#        291129
#        294988
#        304509
#
# Disc length: 4352 seconds
#
# Revision: 1
# Processed by: cddbd v1.5.2PL0 Copyright (c) Steve Scherf et al.
# Submitted via: ExactAudioCopy v0.99pb5
#
DISCID=0010fe11
DTITLE=Pierre Monteux & Boston Symphony Orchestra / Pierre Monteux In 
DTITLE=Boston (CD8) - Tchaikovsky, Stravinsky (58.1.3)
DYEAR=1958
DGENRE=Classical
TTITLE0=Tchaikovsky : Symphony No.4 in F minor, op.36 - I. Andante sos
TTITLE0=tenuto - Moderato con anima
TTITLE1=Tchaikovsky : Symphony No.4 in F minor, op.36 - II. Andantino 
TTITLE1=in modo di canzone
TTITLE2=Tchaikovsky : Symphony No.4 in F minor, op.36 - III. Scherzo: 
TTITLE2=Pizzicato ostinato. Allegro
TTITLE3=Tchaikovsky : Symphony No.4 in F minor, op.36 - IV. Allegro co
TTITLE3=n fuoco
TTITLE4=Stravinsky : Petrushka - I. Tableau 1: La foire du mardi gras
TTITLE5=Stravinsky : Petrushka - II. La cabine du charlatan
TTITLE6=Stravinsky : Petrushka - II. Danse russe
TTITLE7=Stravinsky : Petrushka - IV. Tableau 2: Chez Petrouchka
TTITLE8=Stravinsky : Petrushka - V. Tableau 3: Chez le Maure 
TTITLE9=Stravinsky : Petrushka - VI. Danse de la ballerine
TTITLE10=Stravinsky : Petrushka - VII. Valse de la ballerine et du Mau
TTITLE10=re
TTITLE11=Stravinsky : Petrushka - VII. Tableau 4: La foire du mardi gr
TTITLE11=as (la nuit) 
TTITLE12=Stravinsky : Petrushka - VIII. Danse des Nourrices
TTITLE13=Stravinsky : Petrushka - IX. Le Paysan et son ours dansant
TTITLE14=Stravinsky : Petrushka - X. Le Joyeux nociant et deux Boheien
TTITLE14=nes
TTITLE15=Stravinsky : Petrushka - XI. Danse des personnalit? et de leu
TTITLE15=rs suivants
TTITLE16=Stravinsky : Petrushka - XII. Les Artistes de theatre
EXTD=
EXTT0=
EXTT1=
EXTT2=
EXTT3=
EXTT4=
EXTT5=
EXTT6=
EXTT7=
EXTT8=
EXTT9=
EXTT10=
EXTT11=
EXTT12=
EXTT13=
EXTT14=
EXTT15=
EXTT16=
PLAYORDER=
